<svg width="212" height="79" viewBox="0 0 212 79" fill="none" xmlns="http://www.w3.org/2000/svg">
<rect width="212" height="79" rx="20" fill="#F55353"/>
<path d="M63.7598 19.7285C63.7598 19.5176 63.8652 19.3594 64.0762 19.2539C64.2871 19.1133 64.5156 19.043 64.7617 19.043C65.043 19.043 65.2891 19.0957 65.5 19.2012C65.7109 19.2715 65.8164 19.3945 65.8164 19.5703L65.8691 39.1348L76.5215 32.8594C76.7324 32.7188 76.9434 32.7188 77.1543 32.8594C77.4004 33 77.5762 33.1934 77.6816 33.4395C77.8223 33.6504 77.875 33.8965 77.8398 34.1777C77.8047 34.459 77.6641 34.6699 77.418 34.8105L66.7129 40.9277L78.5781 49.207C78.7539 49.3125 78.8242 49.4883 78.7891 49.7344C78.7891 49.9805 78.7188 50.209 78.5781 50.4199C78.4727 50.5957 78.3145 50.7363 78.1035 50.8418C77.8926 50.9473 77.6816 50.9297 77.4707 50.7891L65.8691 42.8789L65.9219 50.3145C65.9219 50.5957 65.8164 50.8066 65.6055 50.9473C65.3945 51.0527 65.166 51.1055 64.9199 51.1055C64.709 51.1055 64.498 51.0527 64.2871 50.9473C64.0762 50.8066 63.9707 50.6133 63.9707 50.3672L63.7598 19.7285ZM83.5879 19.834C83.5879 19.5879 83.6934 19.3945 83.9043 19.2539C84.1504 19.1133 84.3965 19.043 84.6426 19.043C84.9238 19.043 85.1699 19.1133 85.3809 19.2539C85.627 19.3945 85.75 19.5879 85.75 19.834L85.8555 50.3145C85.8555 50.5957 85.75 50.7891 85.5391 50.8945C85.3281 51 85.0996 51.0527 84.8535 51.0527C84.6426 51.0527 84.4316 51 84.2207 50.8945C84.0098 50.7539 83.9043 50.5781 83.9043 50.3672L83.5879 19.834ZM106.264 47.3613C105.666 48.0996 105.051 48.7148 104.418 49.207C103.785 49.6992 103.152 50.0859 102.52 50.3672C101.887 50.6133 101.271 50.7891 100.674 50.8945C100.076 51 99.5312 51.0527 99.0391 51.0527C97.8086 51.0527 96.6484 50.8066 95.5586 50.3145C94.5039 49.8223 93.5723 49.1543 92.7637 48.3105C91.9902 47.4668 91.375 46.5 90.918 45.4102C90.4609 44.2852 90.2324 43.1074 90.2324 41.877C90.2324 40.6465 90.4609 39.4863 90.918 38.3965C91.375 37.3066 91.9902 36.3574 92.7637 35.5488C93.5723 34.7051 94.5039 34.0547 95.5586 33.5977C96.6484 33.1055 97.8086 32.877 99.0391 32.9121C100.34 32.9473 101.658 33.2812 102.994 33.9141C104.365 34.5469 105.455 35.5488 106.264 36.9199V33.7559C106.264 33.4043 106.352 33.1582 106.527 33.0176C106.738 32.8418 106.949 32.7715 107.16 32.8066C107.406 32.8066 107.617 32.8945 107.793 33.0703C108.004 33.2109 108.109 33.4043 108.109 33.6504L108.057 50.3672C108.057 50.6133 107.951 50.7891 107.74 50.8945C107.564 51 107.371 51.0352 107.16 51C106.949 51 106.738 50.9473 106.527 50.8418C106.352 50.7363 106.264 50.5781 106.264 50.3672V47.3613ZM92.0781 41.9297C92.043 42.8789 92.1836 43.793 92.5 44.6719C92.8516 45.5508 93.3262 46.3242 93.9238 46.9922C94.5566 47.6602 95.2949 48.1875 96.1387 48.5742C97.0176 48.9609 97.9668 49.1543 98.9863 49.1543C99.9355 49.1543 100.832 48.9785 101.676 48.627C102.555 48.2402 103.311 47.7305 103.943 47.0977C104.576 46.4648 105.086 45.709 105.473 44.8301C105.859 43.9512 106.053 42.9844 106.053 41.9297C106.053 40.9805 105.877 40.084 105.525 39.2402C105.174 38.3613 104.682 37.5879 104.049 36.9199C103.451 36.252 102.713 35.7422 101.834 35.3906C100.99 35.0039 100.041 34.8105 98.9863 34.8105C97.0879 34.8457 95.4707 35.5137 94.1348 36.8145C92.834 38.1152 92.1484 39.8203 92.0781 41.9297ZM127.568 47.3613C126.971 48.0996 126.355 48.7148 125.723 49.207C125.09 49.6992 124.457 50.0859 123.824 50.3672C123.191 50.6133 122.576 50.7891 121.979 50.8945C121.381 51 120.836 51.0527 120.344 51.0527C119.113 51.0527 117.953 50.8066 116.863 50.3145C115.809 49.8223 114.877 49.1543 114.068 48.3105C113.295 47.4668 112.68 46.5 112.223 45.4102C111.766 44.2852 111.537 43.1074 111.537 41.877C111.537 40.6465 111.766 39.4863 112.223 38.3965C112.68 37.3066 113.295 36.3574 114.068 35.5488C114.877 34.7051 115.809 34.0547 116.863 33.5977C117.953 33.1055 119.113 32.877 120.344 32.9121C121.645 32.9473 122.963 33.2812 124.299 33.9141C125.67 34.5469 126.76 35.5488 127.568 36.9199V33.7559C127.568 33.4043 127.656 33.1582 127.832 33.0176C128.043 32.8418 128.254 32.7715 128.465 32.8066C128.711 32.8066 128.922 32.8945 129.098 33.0703C129.309 33.2109 129.414 33.4043 129.414 33.6504L129.361 50.3672C129.361 50.6133 129.256 50.7891 129.045 50.8945C128.869 51 128.676 51.0352 128.465 51C128.254 51 128.043 50.9473 127.832 50.8418C127.656 50.7363 127.568 50.5781 127.568 50.3672V47.3613ZM113.383 41.9297C113.348 42.8789 113.488 43.793 113.805 44.6719C114.156 45.5508 114.631 46.3242 115.229 46.9922C115.861 47.6602 116.6 48.1875 117.443 48.5742C118.322 48.9609 119.271 49.1543 120.291 49.1543C121.24 49.1543 122.137 48.9785 122.98 48.627C123.859 48.2402 124.615 47.7305 125.248 47.0977C125.881 46.4648 126.391 45.709 126.777 44.8301C127.164 43.9512 127.357 42.9844 127.357 41.9297C127.357 40.9805 127.182 40.084 126.83 39.2402C126.479 38.3613 125.986 37.5879 125.354 36.9199C124.756 36.252 124.018 35.7422 123.139 35.3906C122.295 35.0039 121.346 34.8105 120.291 34.8105C118.393 34.8457 116.775 35.5137 115.439 36.8145C114.139 38.1152 113.453 39.8203 113.383 41.9297ZM146.869 37.2891C146.482 36.7617 146.078 36.3574 145.656 36.0762C145.27 35.7598 144.865 35.5137 144.443 35.3379C143.74 35.0918 143.002 34.9688 142.229 34.9688C141.455 34.9336 140.734 35.0391 140.066 35.2852C139.328 35.5312 138.643 35.9004 138.01 36.3926C137.412 36.8496 136.885 37.4121 136.428 38.0801C136.006 38.7129 135.654 39.416 135.373 40.1895C135.127 40.9629 135.004 41.7363 135.004 42.5098V50.3672C135.004 50.6133 134.881 50.8066 134.635 50.9473C134.424 51.0527 134.178 51.1055 133.896 51.1055C133.65 51.1406 133.404 51.1055 133.158 51C132.947 50.8594 132.842 50.666 132.842 50.4199L132.895 33.334C132.895 33.123 133 32.9648 133.211 32.8594C133.422 32.7539 133.633 32.7012 133.844 32.7012C134.09 32.7012 134.318 32.7539 134.529 32.8594C134.74 32.9648 134.846 33.123 134.846 33.334L134.898 37.0781C135.391 36.3047 135.936 35.6543 136.533 35.127C137.166 34.5996 137.799 34.1777 138.432 33.8613C139.064 33.5449 139.68 33.3164 140.277 33.1758C140.875 33.0352 141.42 32.9648 141.912 32.9648C143.283 32.9648 144.531 33.2461 145.656 33.8086C146.816 34.3359 147.748 35.1445 148.451 36.2344C148.627 36.4805 148.662 36.709 148.557 36.9199C148.486 37.1309 148.346 37.3066 148.135 37.4473C147.959 37.5527 147.748 37.6055 147.502 37.6055C147.256 37.6055 147.045 37.5 146.869 37.2891Z" fill="#FAFBFB"/>
<path d="M63.7598 19.7285H63.0597L63.0598 19.7333L63.7598 19.7285ZM64.0762 19.2539L64.3892 19.88L64.4282 19.8605L64.4645 19.8363L64.0762 19.2539ZM65.5 19.2012L65.187 19.8273L65.2314 19.8495L65.2786 19.8653L65.5 19.2012ZM65.8164 19.5703H65.1164L65.1164 19.5722L65.8164 19.5703ZM65.8691 39.1348L65.1691 39.1367L65.1724 40.3576L66.2244 39.7379L65.8691 39.1348ZM76.5215 32.8594L76.8768 33.4625L76.8936 33.4526L76.9098 33.4418L76.5215 32.8594ZM77.1543 32.8594L76.766 33.4418L76.7861 33.4552L76.807 33.4671L77.1543 32.8594ZM77.6816 33.4395L77.0382 33.7152L77.0636 33.7743L77.0992 33.8277L77.6816 33.4395ZM77.418 34.8105L77.7653 35.4183L77.418 34.8105ZM66.7129 40.9277L66.3656 40.32L65.4051 40.8688L66.3123 41.5018L66.7129 40.9277ZM78.5781 49.207L78.1776 49.7811L78.1973 49.7949L78.218 49.8073L78.5781 49.207ZM78.7891 49.7344L78.0961 49.6354L78.0891 49.6846V49.7344H78.7891ZM78.5781 50.4199L77.9957 50.0316L77.9865 50.0455L77.9779 50.0598L78.5781 50.4199ZM77.4707 50.7891L77.0763 51.3675L77.0824 51.3715L77.4707 50.7891ZM65.8691 42.8789L66.2635 42.3005L65.1597 41.548L65.1692 42.8839L65.8691 42.8789ZM65.9219 50.3145H66.6219L66.6219 50.3095L65.9219 50.3145ZM65.6055 50.9473L65.9185 51.5734L65.9575 51.5539L65.9938 51.5297L65.6055 50.9473ZM64.2871 50.9473L63.8988 51.5297L63.9351 51.5539L63.9741 51.5734L64.2871 50.9473ZM63.9707 50.3672H64.6707L64.6707 50.3624L63.9707 50.3672ZM64.4598 19.7285C64.4598 19.7345 64.459 19.7503 64.4526 19.7725C64.4461 19.7953 64.4355 19.8187 64.4213 19.84C64.392 19.8839 64.3668 19.8912 64.3892 19.88L63.7631 18.6278C63.5746 18.7221 63.3912 18.8613 63.2564 19.0634C63.1188 19.2699 63.0598 19.5006 63.0598 19.7285H64.4598ZM64.4645 19.8363C64.5641 19.7699 64.6582 19.743 64.7617 19.743V18.343C64.3731 18.343 64.0101 18.4566 63.6879 18.6715L64.4645 19.8363ZM64.7617 19.743C64.955 19.743 65.0902 19.7789 65.187 19.8273L65.813 18.5751C65.4879 18.4125 65.1309 18.343 64.7617 18.343V19.743ZM65.2786 19.8653C65.3067 19.8746 65.2609 19.866 65.2058 19.8017C65.1773 19.7684 65.1528 19.7274 65.1365 19.6813C65.1206 19.6361 65.1164 19.5971 65.1164 19.5703H66.5164C66.5164 19.3306 66.4398 19.0901 66.2688 18.8906C66.1083 18.7034 65.9042 18.598 65.7214 18.5371L65.2786 19.8653ZM65.1164 19.5722L65.1691 39.1367L66.5691 39.1329L66.5164 19.5684L65.1164 19.5722ZM66.2244 39.7379L76.8768 33.4625L76.1662 32.2563L65.5138 38.5316L66.2244 39.7379ZM76.9098 33.4418C76.9238 33.4325 76.8964 33.4539 76.8379 33.4539C76.7793 33.4539 76.752 33.4325 76.766 33.4418L77.5426 32.2769C77.3457 32.1457 77.1074 32.0539 76.8379 32.0539C76.5684 32.0539 76.3301 32.1457 76.1332 32.2769L76.9098 33.4418ZM76.807 33.4671C76.9292 33.537 76.9964 33.6175 77.0382 33.7152L78.325 33.1637C78.156 32.7692 77.8716 32.463 77.5016 32.2516L76.807 33.4671ZM77.0992 33.8277C77.1355 33.8822 77.1622 33.9553 77.1452 34.0909L78.5344 34.2646C78.5878 33.8377 78.509 33.4186 78.2641 33.0512L77.0992 33.8277ZM77.1452 34.0909C77.1395 34.1366 77.1288 34.1537 77.1256 34.1586C77.1223 34.1634 77.1106 34.1799 77.0707 34.2028L77.7653 35.4183C78.2027 35.1684 78.472 34.7644 78.5344 34.2646L77.1452 34.0909ZM77.0707 34.2028L66.3656 40.32L67.0602 41.5355L77.7653 35.4183L77.0707 34.2028ZM66.3123 41.5018L78.1776 49.7811L78.9787 48.633L67.1135 40.3537L66.3123 41.5018ZM78.218 49.8073C78.2055 49.7998 78.185 49.785 78.1634 49.7603C78.1413 49.7351 78.1242 49.7065 78.1128 49.6779C78.0903 49.6218 78.1016 49.5968 78.0961 49.6354L79.482 49.8334C79.5117 49.6259 79.5054 49.3899 79.4126 49.158C79.3159 48.9161 79.1458 48.7313 78.9383 48.6068L78.218 49.8073ZM78.0891 49.7344C78.0891 49.8379 78.0621 49.932 77.9957 50.0316L79.1606 50.8082C79.3754 50.486 79.4891 50.123 79.4891 49.7344H78.0891ZM77.9779 50.0598C77.9507 50.105 77.9007 50.1606 77.7905 50.2157L78.4166 51.4679C78.7282 51.3121 78.9946 51.0864 79.1784 50.7801L77.9779 50.0598ZM77.7905 50.2157C77.7867 50.2176 77.7909 50.215 77.8025 50.2125C77.8146 50.21 77.8296 50.2088 77.8452 50.2101C77.8607 50.2114 77.871 50.2146 77.8747 50.216C77.8779 50.2172 77.8726 50.2157 77.859 50.2066L77.0824 51.3715C77.4832 51.6387 77.9611 51.6956 78.4166 51.4679L77.7905 50.2157ZM77.865 50.2107L66.2635 42.3005L65.4748 43.4573L77.0764 51.3674L77.865 50.2107ZM65.1692 42.8839L65.2219 50.3194L66.6219 50.3095L66.5691 42.8739L65.1692 42.8839ZM65.2219 50.3145C65.2219 50.3672 65.2123 50.3793 65.2167 50.3705C65.2185 50.3669 65.2212 50.363 65.2236 50.3603C65.2258 50.3579 65.2248 50.3598 65.2172 50.3648L65.9938 51.5297C66.4232 51.2434 66.6219 50.7996 66.6219 50.3145H65.2219ZM65.2924 50.3212C65.1829 50.3759 65.0622 50.4055 64.9199 50.4055V51.8055C65.2698 51.8055 65.6061 51.7296 65.9185 51.5734L65.2924 50.3212ZM64.9199 50.4055C64.8299 50.4055 64.7255 50.3838 64.6002 50.3212L63.9741 51.5734C64.2706 51.7216 64.588 51.8055 64.9199 51.8055V50.4055ZM64.6754 50.3648C64.6619 50.3558 64.6569 50.3505 64.6568 50.3505C64.6568 50.3504 64.6577 50.3514 64.6592 50.3535C64.6607 50.3555 64.6625 50.3583 64.6643 50.3616C64.6682 50.3688 64.6703 50.3751 64.6711 50.3785C64.6719 50.3816 64.6707 50.3785 64.6707 50.3672H63.2707C63.2707 50.8557 63.5002 51.264 63.8988 51.5297L64.6754 50.3648ZM64.6707 50.3624L64.4597 19.7237L63.0598 19.7333L63.2707 50.372L64.6707 50.3624ZM83.5879 19.834H82.8879L82.8879 19.8412L83.5879 19.834ZM83.9043 19.2539L83.557 18.6461L83.5361 18.6581L83.516 18.6715L83.9043 19.2539ZM85.3809 19.2539L84.9926 19.8363L85.0126 19.8497L85.0336 19.8617L85.3809 19.2539ZM85.75 19.834H85.05L85.05 19.8364L85.75 19.834ZM85.8555 50.3145H86.5555L86.5555 50.312L85.8555 50.3145ZM84.2207 50.8945L83.8324 51.477L83.8687 51.5011L83.9077 51.5206L84.2207 50.8945ZM83.9043 50.3672H84.6043L84.6043 50.3599L83.9043 50.3672ZM84.2879 19.834C84.2879 19.8226 84.2891 19.8196 84.2883 19.8227C84.2875 19.8261 84.2854 19.8324 84.2815 19.8396C84.2797 19.8429 84.2779 19.8456 84.2764 19.8477C84.2749 19.8498 84.274 19.8507 84.274 19.8507C84.2741 19.8506 84.2791 19.8453 84.2926 19.8363L83.516 18.6715C83.1174 18.9372 82.8879 19.3455 82.8879 19.834H84.2879ZM84.2516 19.8617C84.4082 19.7722 84.5357 19.743 84.6426 19.743V18.343C84.2572 18.343 83.8926 18.4544 83.557 18.6461L84.2516 19.8617ZM84.6426 19.743C84.8013 19.743 84.909 19.7806 84.9926 19.8363L85.7691 18.6715C85.4308 18.4459 85.0463 18.343 84.6426 18.343V19.743ZM85.0336 19.8617C85.0572 19.8752 85.0688 19.8848 85.0727 19.8883C85.0763 19.8916 85.0729 19.8892 85.0672 19.8802C85.0612 19.8709 85.0561 19.8595 85.0529 19.848C85.0497 19.8369 85.05 19.8313 85.05 19.834H86.45C86.45 19.2941 86.1527 18.8887 85.7282 18.6461L85.0336 19.8617ZM85.05 19.8364L85.1555 50.3169L86.5555 50.312L86.45 19.8316L85.05 19.8364ZM85.1555 50.3145C85.1555 50.3696 85.1451 50.366 85.1618 50.3352C85.1703 50.3198 85.1823 50.3038 85.1969 50.29C85.2111 50.2766 85.2226 50.2702 85.226 50.2684L85.8521 51.5206C86.0759 51.4087 86.2648 51.2368 86.3909 51.0056C86.5131 50.7815 86.5555 50.5405 86.5555 50.3145H85.1555ZM85.226 50.2684C85.1165 50.3232 84.9958 50.3527 84.8535 50.3527V51.7527C85.2034 51.7527 85.5397 51.6768 85.8521 51.5206L85.226 50.2684ZM84.8535 50.3527C84.7635 50.3527 84.6591 50.3311 84.5338 50.2684L83.9077 51.5206C84.2042 51.6689 84.5216 51.7527 84.8535 51.7527V50.3527ZM84.609 50.3121C84.5698 50.286 84.572 50.2776 84.5836 50.2971C84.5895 50.3068 84.5953 50.3197 84.5994 50.3346C84.6034 50.3494 84.6043 50.361 84.6043 50.3672H83.2043C83.2043 50.8617 83.4719 51.2366 83.8324 51.477L84.609 50.3121ZM84.6043 50.3599L84.2879 19.8267L82.8879 19.8412L83.2043 50.3744L84.6043 50.3599ZM106.264 47.3613H106.964V45.3841L105.72 46.9209L106.264 47.3613ZM102.52 50.3672L102.773 51.0196L102.789 51.0136L102.804 51.0069L102.52 50.3672ZM95.5586 50.3145L95.2626 50.9488L95.2705 50.9524L95.5586 50.3145ZM92.7637 48.3105L92.2477 48.7836L92.2529 48.7893L92.2583 48.7949L92.7637 48.3105ZM90.918 45.4102L90.2694 45.6736L90.2724 45.6809L90.918 45.4102ZM92.7637 35.5488L92.2583 35.0645L92.2578 35.065L92.7637 35.5488ZM95.5586 33.5977L95.837 34.24L95.8467 34.2356L95.5586 33.5977ZM99.0391 32.9121L99.0191 33.6118L99.0201 33.6119L99.0391 32.9121ZM102.994 33.9141L102.694 34.5467L102.701 34.5496L102.994 33.9141ZM106.264 36.9199L105.661 37.2755L106.964 39.4849V36.9199H106.264ZM106.527 33.0176L106.965 33.5643L106.975 33.5553L106.527 33.0176ZM107.16 32.8066L107.045 33.4971L107.102 33.5066H107.16V32.8066ZM107.793 33.0703L107.298 33.5653L107.347 33.6143L107.405 33.6527L107.793 33.0703ZM108.109 33.6504L108.809 33.6526V33.6504H108.109ZM108.057 50.3672L107.357 50.365V50.3672H108.057ZM107.74 50.8945L107.427 50.2684L107.403 50.2805L107.38 50.2943L107.74 50.8945ZM107.16 51L107.275 50.3095L107.218 50.3H107.16V51ZM106.527 50.8418L106.167 51.442L106.19 51.4559L106.214 51.4679L106.527 50.8418ZM92.0781 41.9297L92.7776 41.9556L92.7777 41.953L92.0781 41.9297ZM92.5 44.6719L91.8414 44.909L91.8455 44.9205L91.8501 44.9318L92.5 44.6719ZM93.9238 46.9922L93.4022 47.4589L93.4088 47.4664L93.4157 47.4736L93.9238 46.9922ZM96.1387 48.5742L95.847 49.2106L95.8568 49.2149L96.1387 48.5742ZM101.676 48.627L101.945 49.2732L101.958 49.2677L101.676 48.627ZM105.525 39.2402L104.875 39.5002L104.879 39.5095L105.525 39.2402ZM104.049 36.9199L103.527 37.3867L103.534 37.3941L103.541 37.4013L104.049 36.9199ZM101.834 35.3906L101.542 36.027L101.558 36.0342L101.574 36.0406L101.834 35.3906ZM98.9863 34.8105V34.1104L98.9734 34.1107L98.9863 34.8105ZM94.1348 36.8145L93.6464 36.3129L93.6398 36.3195L94.1348 36.8145ZM105.72 46.9209C105.15 47.625 104.572 48.2006 103.988 48.6545L104.848 49.7596C105.53 49.2291 106.182 48.5743 106.808 47.8018L105.72 46.9209ZM103.988 48.6545C103.393 49.1172 102.809 49.4726 102.235 49.7275L102.804 51.0069C103.496 50.6993 104.177 50.2813 104.848 49.7596L103.988 48.6545ZM102.266 49.7148C101.671 49.9462 101.1 50.1086 100.552 50.2052L100.795 51.5839C101.443 51.4696 102.103 51.2804 102.773 51.0196L102.266 49.7148ZM100.552 50.2052C99.9858 50.3051 99.4824 50.3527 99.0391 50.3527V51.7527C99.5801 51.7527 100.167 51.6949 100.795 51.5839L100.552 50.2052ZM99.0391 50.3527C97.905 50.3527 96.8433 50.1266 95.8467 49.6765L95.2705 50.9524C96.4535 51.4867 97.7122 51.7527 99.0391 51.7527V50.3527ZM95.8546 49.6801C94.8787 49.2247 94.018 48.6077 93.2691 47.8262L92.2583 48.7949C93.1265 49.7009 94.1291 50.4198 95.2626 50.9488L95.8546 49.6801ZM93.2797 47.8375C92.5625 47.0552 91.9904 46.1574 91.5635 45.1394L90.2724 45.6809C90.7596 46.8426 91.4179 47.8784 92.2477 48.7836L93.2797 47.8375ZM91.5665 45.1467C91.1439 44.1065 90.9324 43.0183 90.9324 41.877H89.5324C89.5324 43.1965 89.778 44.4638 90.2694 45.6736L91.5665 45.1467ZM90.9324 41.877C90.9324 40.7355 91.1439 39.6678 91.5635 38.6672L90.2724 38.1258C89.778 39.3049 89.5324 40.5574 89.5324 41.877H90.9324ZM91.5635 38.6672C91.9893 37.6519 92.5586 36.776 93.2695 36.0327L92.2578 35.065C91.4219 35.9389 90.7607 36.9614 90.2724 38.1258L91.5635 38.6672ZM93.2691 36.0332C94.0143 35.2555 94.8691 34.6593 95.8369 34.2399L95.2803 32.9554C94.1387 33.4501 93.1302 34.1547 92.2583 35.0645L93.2691 36.0332ZM95.8467 34.2356C96.837 33.7884 97.8914 33.5796 99.0191 33.6118L99.0591 32.2124C97.7257 32.1743 96.4599 32.4225 95.2705 32.9597L95.8467 34.2356ZM99.0201 33.6119C100.211 33.644 101.435 33.9499 102.694 34.5467L103.294 33.2814C101.882 32.6126 100.468 32.2505 99.058 32.2124L99.0201 33.6119ZM102.701 34.5496C103.935 35.1195 104.92 36.02 105.661 37.2755L106.867 36.5643C105.99 35.0776 104.795 33.9743 103.287 33.2785L102.701 34.5496ZM106.964 36.9199V33.7559H105.564V36.9199H106.964ZM106.964 33.7559C106.964 33.6344 106.979 33.5695 106.989 33.5431C106.996 33.5223 106.994 33.541 106.965 33.5642L106.09 32.471C105.673 32.8048 105.564 33.3121 105.564 33.7559H106.964ZM106.975 33.5553C107.029 33.5106 107.059 33.499 107.065 33.4971C107.068 33.4962 107.066 33.4972 107.06 33.4976C107.054 33.4981 107.049 33.4978 107.045 33.4971L107.275 32.1162C106.809 32.0385 106.399 32.2133 106.079 32.4798L106.975 33.5553ZM107.16 33.5066C107.218 33.5066 107.252 33.5193 107.298 33.5653L108.288 32.5753C107.982 32.2698 107.594 32.1066 107.16 32.1066V33.5066ZM107.405 33.6527C107.418 33.6617 107.423 33.667 107.423 33.6671C107.423 33.6671 107.422 33.6662 107.421 33.6641C107.419 33.6621 107.418 33.6593 107.416 33.656C107.412 33.6488 107.41 33.6425 107.409 33.6391C107.408 33.636 107.409 33.639 107.409 33.6504H108.809C108.809 33.1619 108.58 32.7536 108.181 32.4879L107.405 33.6527ZM107.409 33.6482L107.357 50.365L108.757 50.3694L108.809 33.6526L107.409 33.6482ZM107.357 50.3672C107.357 50.3889 107.353 50.3643 107.377 50.3234C107.389 50.3045 107.402 50.2895 107.414 50.2791C107.425 50.269 107.431 50.2665 107.427 50.2684L108.053 51.5206C108.259 51.4175 108.447 51.2622 108.578 51.0437C108.708 50.8271 108.757 50.5916 108.757 50.3672H107.357ZM107.38 50.2943C107.354 50.3102 107.33 50.3186 107.275 50.3095L107.045 51.6905C107.412 51.7517 107.775 51.6898 108.1 51.4948L107.38 50.2943ZM107.16 50.3C107.07 50.3 106.966 50.2784 106.84 50.2157L106.214 51.4679C106.511 51.6162 106.828 51.7 107.16 51.7V50.3ZM106.887 50.2416C106.891 50.2435 106.918 50.2622 106.942 50.3041C106.964 50.345 106.964 50.3735 106.964 50.3672H105.564C105.564 50.8153 105.773 51.2056 106.167 51.442L106.887 50.2416ZM106.964 50.3672V47.3613H105.564V50.3672H106.964ZM91.3786 41.9038C91.3402 42.9409 91.4941 43.9444 91.8414 44.909L93.1586 44.4348C92.8731 43.6416 92.7457 42.8169 92.7776 41.9556L91.3786 41.9038ZM91.8501 44.9318C92.2303 45.8823 92.747 46.7267 93.4022 47.4589L94.4455 46.5254C93.9053 45.9217 93.4729 45.2192 93.1499 44.4119L91.8501 44.9318ZM93.4157 47.4736C94.1106 48.2072 94.9226 48.7869 95.847 49.2106L96.4303 47.9379C95.6673 47.5881 95.0027 47.1131 94.432 46.5108L93.4157 47.4736ZM95.8568 49.2149C96.8299 49.6431 97.8758 49.8543 98.9863 49.8543V48.4543C98.0578 48.4543 97.2052 48.2787 96.4206 47.9335L95.8568 49.2149ZM98.9863 49.8543C100.024 49.8543 101.013 49.6616 101.945 49.2731L101.407 47.9808C100.651 48.2954 99.8468 48.4543 98.9863 48.4543V49.8543ZM101.958 49.2677C102.91 48.8486 103.74 48.2912 104.438 47.5926L103.448 46.6027C102.881 47.1698 102.199 47.6319 101.394 47.9862L101.958 49.2677ZM104.438 47.5926C105.137 46.8941 105.694 46.0645 106.113 45.112L104.832 44.5482C104.478 45.3535 104.015 46.0356 103.448 46.6027L104.438 47.5926ZM106.113 45.112C106.543 44.1358 106.753 43.0718 106.753 41.9297H105.353C105.353 42.8969 105.176 43.7665 104.832 44.5482L106.113 45.112ZM106.753 41.9297C106.753 40.8917 106.56 39.9033 106.172 38.971L104.879 39.5095C105.194 40.2646 105.353 41.0693 105.353 41.9297H106.753ZM106.175 38.9803C105.792 38.0217 105.252 37.1725 104.557 36.4385L103.541 37.4013C104.111 38.0033 104.556 38.701 104.875 39.5002L106.175 38.9803ZM104.57 36.4532C103.897 35.7003 103.067 35.13 102.094 34.7407L101.574 36.0406C102.359 36.3544 103.005 36.8036 103.527 37.3867L104.57 36.4532ZM102.126 34.7543C101.179 34.3203 100.128 34.1105 98.9863 34.1105V35.5105C99.9541 35.5105 100.802 35.6876 101.542 36.027L102.126 34.7543ZM98.9734 34.1107C96.9006 34.149 95.1124 34.8855 93.6464 36.3129L94.6231 37.316C95.829 36.1418 97.2751 35.5424 98.9993 35.5104L98.9734 34.1107ZM93.6398 36.3195C92.1949 37.7644 91.4538 39.6476 91.3785 41.9064L92.7777 41.953C92.8431 39.993 93.4731 38.4661 94.6297 37.3094L93.6398 36.3195ZM127.568 47.3613H128.268V45.3841L127.024 46.9209L127.568 47.3613ZM123.824 50.3672L124.078 51.0196L124.093 51.0136L124.109 51.0069L123.824 50.3672ZM116.863 50.3145L116.567 50.9488L116.575 50.9524L116.863 50.3145ZM114.068 48.3105L113.552 48.7836L113.558 48.7893L113.563 48.7949L114.068 48.3105ZM112.223 45.4102L111.574 45.6736L111.577 45.6809L112.223 45.4102ZM114.068 35.5488L113.563 35.0645L113.563 35.065L114.068 35.5488ZM116.863 33.5977L117.142 34.24L117.151 34.2356L116.863 33.5977ZM120.344 32.9121L120.324 33.6118L120.325 33.6119L120.344 32.9121ZM124.299 33.9141L123.999 34.5467L124.005 34.5496L124.299 33.9141ZM127.568 36.9199L126.965 37.2755L128.268 39.4849V36.9199H127.568ZM127.832 33.0176L128.269 33.5643L128.28 33.5553L127.832 33.0176ZM128.465 32.8066L128.35 33.4971L128.407 33.5066H128.465V32.8066ZM129.098 33.0703L128.603 33.5653L128.652 33.6143L128.709 33.6527L129.098 33.0703ZM129.414 33.6504L130.114 33.6526V33.6504H129.414ZM129.361 50.3672L128.661 50.365V50.3672H129.361ZM129.045 50.8945L128.732 50.2684L128.708 50.2805L128.685 50.2943L129.045 50.8945ZM128.465 51L128.58 50.3095L128.523 50.3H128.465V51ZM127.832 50.8418L127.472 51.442L127.495 51.4559L127.519 51.4679L127.832 50.8418ZM113.383 41.9297L114.082 41.9556L114.082 41.953L113.383 41.9297ZM113.805 44.6719L113.146 44.909L113.15 44.9205L113.155 44.9318L113.805 44.6719ZM115.229 46.9922L114.707 47.4589L114.713 47.4664L114.72 47.4736L115.229 46.9922ZM117.443 48.5742L117.152 49.2106L117.161 49.2149L117.443 48.5742ZM122.98 48.627L123.25 49.2732L123.262 49.2677L122.98 48.627ZM126.83 39.2402L126.18 39.5002L126.184 39.5095L126.83 39.2402ZM125.354 36.9199L124.832 37.3867L124.838 37.3941L124.845 37.4013L125.354 36.9199ZM123.139 35.3906L122.847 36.027L122.863 36.0342L122.879 36.0406L123.139 35.3906ZM120.291 34.8105V34.1104L120.278 34.1107L120.291 34.8105ZM115.439 36.8145L114.951 36.3129L114.944 36.3195L115.439 36.8145ZM127.024 46.9209C126.454 47.625 125.877 48.2006 125.293 48.6545L126.152 49.7596C126.834 49.2291 127.487 48.5743 128.112 47.8018L127.024 46.9209ZM125.293 48.6545C124.698 49.1172 124.114 49.4726 123.54 49.7275L124.109 51.0069C124.801 50.6993 125.482 50.2813 126.152 49.7596L125.293 48.6545ZM123.571 49.7148C122.975 49.9462 122.404 50.1086 121.857 50.2052L122.1 51.5839C122.748 51.4696 123.407 51.2804 124.078 51.0196L123.571 49.7148ZM121.857 50.2052C121.291 50.3051 120.787 50.3527 120.344 50.3527V51.7527C120.885 51.7527 121.471 51.6949 122.1 51.5839L121.857 50.2052ZM120.344 50.3527C119.21 50.3527 118.148 50.1266 117.151 49.6765L116.575 50.9524C117.758 51.4867 119.017 51.7527 120.344 51.7527V50.3527ZM117.159 49.6801C116.183 49.2247 115.323 48.6077 114.574 47.8262L113.563 48.7949C114.431 49.7009 115.434 50.4198 116.567 50.9488L117.159 49.6801ZM114.584 47.8375C113.867 47.0552 113.295 46.1574 112.868 45.1394L111.577 45.6809C112.064 46.8426 112.723 47.8784 113.552 48.7836L114.584 47.8375ZM112.871 45.1467C112.449 44.1065 112.237 43.0183 112.237 41.877H110.837C110.837 43.1965 111.083 44.4638 111.574 45.6736L112.871 45.1467ZM112.237 41.877C112.237 40.7355 112.449 39.6678 112.868 38.6672L111.577 38.1258C111.083 39.3049 110.837 40.5574 110.837 41.877H112.237ZM112.868 38.6672C113.294 37.6519 113.863 36.776 114.574 36.0327L113.563 35.065C112.727 35.9389 112.065 36.9614 111.577 38.1258L112.868 38.6672ZM114.574 36.0332C115.319 35.2555 116.174 34.6593 117.142 34.2399L116.585 32.9554C115.443 33.4501 114.435 34.1547 113.563 35.0645L114.574 36.0332ZM117.151 34.2356C118.142 33.7884 119.196 33.5796 120.324 33.6118L120.364 32.2124C119.03 32.1743 117.765 32.4225 116.575 32.9597L117.151 34.2356ZM120.325 33.6119C121.516 33.644 122.739 33.9499 123.999 34.5467L124.598 33.2814C123.187 32.6126 121.773 32.2505 120.363 32.2124L120.325 33.6119ZM124.005 34.5496C125.24 35.1195 126.225 36.02 126.965 37.2755L128.171 36.5643C127.295 35.0776 126.1 33.9743 124.592 33.2785L124.005 34.5496ZM128.268 36.9199V33.7559H126.868V36.9199H128.268ZM128.268 33.7559C128.268 33.6344 128.284 33.5695 128.293 33.5431C128.301 33.5223 128.298 33.541 128.269 33.5642L127.395 32.471C126.977 32.8048 126.868 33.3121 126.868 33.7559H128.268ZM128.28 33.5553C128.334 33.5106 128.364 33.499 128.37 33.4971C128.372 33.4962 128.37 33.4972 128.365 33.4976C128.359 33.4981 128.354 33.4978 128.35 33.4971L128.58 32.1162C128.114 32.0385 127.704 32.2133 127.384 32.4798L128.28 33.5553ZM128.465 33.5066C128.523 33.5066 128.557 33.5193 128.603 33.5653L129.593 32.5753C129.287 32.2698 128.899 32.1066 128.465 32.1066V33.5066ZM128.709 33.6527C128.723 33.6617 128.728 33.667 128.728 33.6671C128.728 33.6671 128.727 33.6662 128.726 33.6641C128.724 33.6621 128.722 33.6593 128.72 33.656C128.717 33.6488 128.714 33.6425 128.714 33.6391C128.713 33.636 128.714 33.639 128.714 33.6504H130.114C130.114 33.1619 129.885 32.7536 129.486 32.4879L128.709 33.6527ZM128.714 33.6482L128.661 50.365L130.061 50.3694L130.114 33.6526L128.714 33.6482ZM128.661 50.3672C128.661 50.3889 128.657 50.3643 128.682 50.3234C128.693 50.3045 128.707 50.2895 128.718 50.2791C128.73 50.269 128.736 50.2665 128.732 50.2684L129.358 51.5206C129.564 51.4175 129.751 51.2622 129.882 51.0437C130.012 50.8271 130.061 50.5916 130.061 50.3672H128.661ZM128.685 50.2943C128.658 50.3102 128.634 50.3186 128.58 50.3095L128.35 51.6905C128.717 51.7517 129.08 51.6898 129.405 51.4948L128.685 50.2943ZM128.465 50.3C128.375 50.3 128.27 50.2784 128.145 50.2157L127.519 51.4679C127.816 51.6162 128.133 51.7 128.465 51.7V50.3ZM128.192 50.2416C128.195 50.2435 128.223 50.2622 128.246 50.3041C128.269 50.345 128.268 50.3735 128.268 50.3672H126.868C126.868 50.8153 127.078 51.2056 127.472 51.442L128.192 50.2416ZM128.268 50.3672V47.3613H126.868V50.3672H128.268ZM112.683 41.9038C112.645 42.9409 112.799 43.9444 113.146 44.909L114.463 44.4348C114.178 43.6416 114.05 42.8169 114.082 41.9556L112.683 41.9038ZM113.155 44.9318C113.535 45.8823 114.052 46.7267 114.707 47.4589L115.75 46.5254C115.21 45.9217 114.778 45.2192 114.455 44.4119L113.155 44.9318ZM114.72 47.4736C115.415 48.2072 116.227 48.7869 117.152 49.2106L117.735 47.9379C116.972 47.5881 116.307 47.1131 115.737 46.5108L114.72 47.4736ZM117.161 49.2149C118.135 49.6431 119.181 49.8543 120.291 49.8543V48.4543C119.362 48.4543 118.51 48.2787 117.725 47.9335L117.161 49.2149ZM120.291 49.8543C121.329 49.8543 122.317 49.6616 123.25 49.2731L122.711 47.9808C121.956 48.2954 121.151 48.4543 120.291 48.4543V49.8543ZM123.262 49.2677C124.215 48.8486 125.044 48.2912 125.743 47.5926L124.753 46.6027C124.186 47.1698 123.504 47.6319 122.699 47.9862L123.262 49.2677ZM125.743 47.5926C126.442 46.8941 126.999 46.0645 127.418 45.112L126.137 44.5482C125.782 45.3535 125.32 46.0356 124.753 46.6027L125.743 47.5926ZM127.418 45.112C127.848 44.1358 128.057 43.0718 128.057 41.9297H126.657C126.657 42.8969 126.481 43.7665 126.137 44.5482L127.418 45.112ZM128.057 41.9297C128.057 40.8917 127.865 39.9033 127.476 38.971L126.184 39.5095C126.499 40.2646 126.657 41.0693 126.657 41.9297H128.057ZM127.48 38.9803C127.097 38.0217 126.557 37.1725 125.862 36.4385L124.845 37.4013C125.416 38.0033 125.86 38.701 126.18 39.5002L127.48 38.9803ZM125.875 36.4532C125.202 35.7003 124.372 35.13 123.399 34.7407L122.879 36.0406C123.663 36.3544 124.31 36.8036 124.832 37.3867L125.875 36.4532ZM123.43 34.7543C122.483 34.3203 121.433 34.1105 120.291 34.1105V35.5105C121.259 35.5105 122.106 35.6876 122.847 36.027L123.43 34.7543ZM120.278 34.1107C118.205 34.149 116.417 34.8855 114.951 36.3129L115.928 37.316C117.134 36.1418 118.58 35.5424 120.304 35.5104L120.278 34.1107ZM114.944 36.3195C113.5 37.7644 112.758 39.6476 112.683 41.9064L114.082 41.953C114.148 39.993 114.778 38.4661 115.934 37.3094L114.944 36.3195ZM146.869 37.2891L146.305 37.703L146.317 37.7205L146.331 37.7372L146.869 37.2891ZM145.656 36.0762L145.213 36.6179L145.239 36.6396L145.268 36.6586L145.656 36.0762ZM144.443 35.3379L144.713 34.6917L144.694 34.6839L144.675 34.6772L144.443 35.3379ZM142.229 34.9688L142.197 35.668L142.213 35.6688H142.229V34.9688ZM140.066 35.2852L140.288 35.9492L140.298 35.9458L140.308 35.942L140.066 35.2852ZM138.01 36.3926L138.435 36.9486L138.44 36.9451L138.01 36.3926ZM136.428 38.0801L135.85 37.6848L135.845 37.6918L136.428 38.0801ZM135.373 40.1895L134.715 39.9502L134.71 39.9636L134.706 39.9772L135.373 40.1895ZM134.635 50.9473L134.948 51.5734L134.965 51.5647L134.982 51.555L134.635 50.9473ZM133.896 51.1055V50.4055H133.847L133.797 50.4125L133.896 51.1055ZM133.158 51L132.77 51.5824L132.823 51.6181L132.882 51.6434L133.158 51ZM132.842 50.4199L132.142 50.4178V50.4199H132.842ZM132.895 33.334L133.595 33.3361V33.334H132.895ZM134.846 33.334H134.146L134.146 33.3438L134.846 33.334ZM134.898 37.0781L134.199 37.088L134.231 39.43L135.489 37.4539L134.898 37.0781ZM136.533 35.127L136.085 34.5892L136.077 34.5955L136.07 34.6021L136.533 35.127ZM145.656 33.8086L145.343 34.4347L145.355 34.4405L145.367 34.4459L145.656 33.8086ZM148.451 36.2344L147.863 36.6139L147.872 36.6278L147.882 36.6412L148.451 36.2344ZM148.557 36.9199L147.931 36.6069L147.908 36.6514L147.893 36.6986L148.557 36.9199ZM148.135 37.4473L148.495 38.0475L148.509 38.0389L148.523 38.0297L148.135 37.4473ZM147.434 36.8751C147.012 36.2999 146.551 35.8314 146.045 35.4937L145.268 36.6586C145.605 36.8834 145.953 37.2235 146.305 37.703L147.434 36.8751ZM146.1 35.5344C145.665 35.1789 145.203 34.896 144.713 34.6917L144.174 35.984C144.528 36.1314 144.874 36.3406 145.213 36.6179L146.1 35.5344ZM144.675 34.6772C143.894 34.4041 143.078 34.2687 142.229 34.2687V35.6688C142.926 35.6688 143.586 35.7795 144.212 35.9986L144.675 34.6772ZM142.26 34.2695C141.402 34.2305 140.587 34.3472 139.824 34.6283L140.308 35.942C140.881 35.7309 141.508 35.6367 142.197 35.668L142.26 34.2695ZM139.845 34.6211C139.029 34.893 138.274 35.3006 137.58 35.84L138.44 36.9451C139.012 36.5002 139.627 36.1695 140.288 35.9492L139.845 34.6211ZM137.585 35.8365C136.924 36.342 136.346 36.9601 135.85 37.6848L137.005 38.4754C137.424 37.8641 137.901 37.3572 138.435 36.9486L137.585 35.8365ZM135.845 37.6918C135.39 38.3747 135.014 39.1285 134.715 39.9502L136.031 40.4287C136.295 39.7035 136.622 39.051 137.01 38.4684L135.845 37.6918ZM134.706 39.9772C134.439 40.8159 134.304 41.6608 134.304 42.5098H135.704C135.704 41.8118 135.815 41.1099 136.04 40.4017L134.706 39.9772ZM134.304 42.5098V50.3672H135.704V42.5098H134.304ZM134.304 50.3672C134.304 50.3699 134.304 50.3643 134.307 50.3531C134.31 50.3416 134.315 50.3303 134.321 50.321C134.327 50.312 134.33 50.3096 134.327 50.3128C134.323 50.3164 134.311 50.326 134.287 50.3395L134.982 51.555C135.407 51.3124 135.704 50.9071 135.704 50.3672H134.304ZM134.322 50.3212C134.225 50.3695 134.09 50.4055 133.896 50.4055V51.8055C134.266 51.8055 134.623 51.7359 134.948 51.5734L134.322 50.3212ZM133.797 50.4125C133.688 50.4281 133.571 50.4155 133.434 50.3566L132.882 51.6434C133.237 51.7954 133.612 51.8531 133.995 51.7984L133.797 50.4125ZM133.546 50.4176C133.533 50.4086 133.528 50.4033 133.528 50.4032C133.528 50.4032 133.529 50.4041 133.53 50.4062C133.532 50.4083 133.534 50.411 133.535 50.4143C133.539 50.4215 133.541 50.4278 133.542 50.4312C133.543 50.4343 133.542 50.4313 133.542 50.4199H132.142C132.142 50.9084 132.371 51.3167 132.77 51.5824L133.546 50.4176ZM133.542 50.4221L133.595 33.3361L132.195 33.3318L132.142 50.4178L133.542 50.4221ZM133.595 33.334C133.595 33.3399 133.594 33.3557 133.587 33.378C133.581 33.4008 133.57 33.4241 133.556 33.4454C133.527 33.4893 133.502 33.4967 133.524 33.4855L132.898 32.2333C132.709 32.3275 132.526 32.4667 132.391 32.6688C132.254 32.8753 132.195 33.106 132.195 33.334H133.595ZM133.524 33.4855C133.649 33.4228 133.754 33.4012 133.844 33.4012V32.0012C133.512 32.0012 133.194 32.085 132.898 32.2333L133.524 33.4855ZM133.844 33.4012C133.986 33.4012 134.107 33.4307 134.216 33.4855L134.842 32.2333C134.53 32.0771 134.194 32.0012 133.844 32.0012V33.4012ZM134.216 33.4855C134.239 33.4967 134.213 33.4893 134.184 33.4454C134.17 33.4241 134.159 33.4008 134.153 33.378C134.147 33.3557 134.146 33.3399 134.146 33.334H135.546C135.546 33.106 135.487 32.8753 135.349 32.6688C135.214 32.4667 135.031 32.3275 134.842 32.2333L134.216 33.4855ZM134.146 33.3438L134.199 37.088L135.598 37.0683L135.546 33.3241L134.146 33.3438ZM135.489 37.4539C135.951 36.7278 136.455 36.1298 136.996 35.6518L136.07 34.6021C135.416 35.1788 134.83 35.8816 134.308 36.7023L135.489 37.4539ZM136.981 35.6647C137.579 35.1664 138.167 34.7761 138.745 34.4874L138.119 33.2352C137.43 33.5793 136.753 34.0328 136.085 34.5892L136.981 35.6647ZM138.745 34.4874C139.336 34.1917 139.9 33.9836 140.438 33.8572L140.117 32.4944C139.459 32.6492 138.793 32.8981 138.119 33.2352L138.745 34.4874ZM140.438 33.8572C140.995 33.726 141.485 33.6648 141.912 33.6648V32.2648C141.355 32.2648 140.755 32.3443 140.117 32.4944L140.438 33.8572ZM141.912 33.6648C143.185 33.6648 144.324 33.9251 145.343 34.4347L145.969 33.1825C144.739 32.5671 143.382 32.2648 141.912 32.2648V33.6648ZM145.367 34.4459C146.402 34.9166 147.231 35.6347 147.863 36.6139L149.039 35.8549C148.265 34.6544 147.231 33.7552 145.946 33.1713L145.367 34.4459ZM147.882 36.6412C147.925 36.7016 147.921 36.719 147.918 36.6968C147.916 36.6848 147.915 36.6675 147.918 36.6478C147.921 36.6283 147.927 36.6141 147.931 36.6069L149.183 37.233C149.438 36.7222 149.297 36.2147 149.021 35.8275L147.882 36.6412ZM147.893 36.6986C147.878 36.7415 147.847 36.7979 147.746 36.8648L148.523 38.0297C148.844 37.8154 149.094 37.5202 149.221 37.1413L147.893 36.6986ZM147.775 36.847C147.728 36.8752 147.647 36.9055 147.502 36.9055V38.3055C147.849 38.3055 148.19 38.2303 148.495 38.0475L147.775 36.847ZM147.502 36.9055C147.483 36.9055 147.476 36.9023 147.472 36.9003C147.466 36.8972 147.443 36.8843 147.407 36.8409L146.331 37.7372C146.623 38.0869 147.022 38.3055 147.502 38.3055V36.9055Z" fill="#FAFBFB"/>
</svg>
