<svg width="85" height="85" viewBox="0 0 85 85" fill="none" xmlns="http://www.w3.org/2000/svg">
<circle cx="42.5" cy="42.5" r="38.5" fill="#FAFBFB" stroke="#F55353" stroke-width="8"/>
<circle cx="42.4155" cy="42.5" r="30.5" fill="#F55353"/>
<circle cx="42.4155" cy="42.5" r="30.5" stroke="#F55353"/>
<path d="M37.636 56.4525L36.4238 56.0039C35.5677 55.6871 34.6119 55.7962 33.8493 56.2979C32.77 57.008 31.3493 56.9097 30.378 56.0578L29.3915 55.1923C28.2808 54.218 28.0448 52.5801 28.8353 51.3319L29.0834 50.9403C29.649 50.0472 29.7028 48.9223 29.225 47.9792L28.8952 47.3283C28.6218 46.7887 28.1917 46.3444 27.6613 46.0536L25.4733 44.854C24.5127 44.3274 23.9155 43.319 23.9155 42.2235V41.5886C23.9155 40.3333 24.6971 39.2108 25.8743 38.7751L27.0642 38.3348C27.6525 38.1171 28.1577 37.7204 28.5089 37.2006L28.9579 36.5359C29.5939 35.5946 29.6435 34.3748 29.0862 33.3848L28.6661 32.6385C27.9657 31.3944 28.2391 29.8292 29.3196 28.8961L29.9188 28.3787C30.8767 27.5516 32.2507 27.4146 33.3531 28.0362L34.0255 28.4154C34.6914 28.7909 35.4755 28.898 36.2177 28.7149L37.2712 28.455C38.3974 28.1772 39.2625 27.275 39.4928 26.1382L39.6416 25.4041C39.9251 24.0054 41.1547 23 42.5819 23H43.4786C44.7994 23 45.9648 23.8638 46.3489 25.1274L46.7262 26.3684C47.0337 27.3801 47.8512 28.1552 48.8779 28.4085L49.947 28.6722C50.7909 28.8804 51.6836 28.7124 52.394 28.2116L52.772 27.9452C53.9587 27.1087 55.5742 27.2421 56.6076 28.2619L57.2442 28.8901C58.2073 29.8406 58.415 31.3181 57.7512 32.4972L57.1288 33.6027C56.6373 34.4758 56.6141 35.5366 57.0669 36.4303L57.2404 36.7728C57.6352 37.5519 58.3499 38.1203 59.1979 38.3295L59.6341 38.4372C60.974 38.7677 61.9155 39.9697 61.9155 41.3498V42.6502C61.9155 44.0303 60.974 45.2323 59.6341 45.5628L59.3038 45.6443C58.3953 45.8685 57.6435 46.5037 57.2707 47.362L56.9752 48.0424C56.5793 48.9541 56.6606 50.0028 57.1925 50.8426L57.582 51.4576C58.337 52.6498 58.1592 54.2069 57.1548 55.1981L56.2707 56.0705C55.3961 56.9336 54.0837 57.1761 52.9585 56.6826L51.5417 56.0612C50.7305 55.7054 49.8036 55.7263 49.0093 56.1182L48.2801 56.478C47.6002 56.8135 47.0725 57.394 46.8032 58.1027L46.4372 59.0657C45.9947 60.2301 44.8786 61 43.6329 61H42.4636C41.0905 61 39.8927 60.0678 39.5555 58.7367L39.5029 58.5293C39.2604 57.5719 38.5622 56.7952 37.636 56.4525Z" fill="#FAFBFB"/>
<circle cx="42.9155" cy="42" r="7" fill="#F55353"/>
</svg>
