<svg width="60" height="60" viewBox="0 0 60 60" fill="none" xmlns="http://www.w3.org/2000/svg">
<circle cx="29.9262" cy="29.9262" r="27.4262" fill="#FAFBFB" stroke="#F55353" stroke-width="5"/>
<circle cx="30" cy="29.8525" r="23" fill="#F55353"/>
<circle cx="30" cy="29.8525" r="23" stroke="#F55353"/>
<path d="M16.3053 32.7936C15.861 32.3485 16.1758 31.5876 16.8054 31.5876L32.1909 31.5876C32.8197 31.5876 33.1353 32.3485 32.691 32.7936L24.9978 40.4937C24.7216 40.7699 24.2747 40.7699 23.9985 40.4937L16.3053 32.7936Z" fill="#FAFBFB"/>
<path d="M28.3002 31.5877C27.7924 25.7567 33.1319 23.0479 37.1933 23.7521C40.1457 24.2633 41.9273 25.9908 42.99 27.7132C43.3374 28.275 44.2055 27.883 44.0048 27.2543C43.3443 25.1905 41.9221 22.8729 38.9226 21.3444C35.6794 19.6924 31.853 19.5585 28.4983 20.967C25.3375 22.2939 21.7915 25.206 20.8832 31.5877L27.3275 32.249L28.2993 31.5877L28.3002 31.5877Z" fill="#FAFBFB"/>
</svg>
