<svg width="60" height="60" viewBox="0 0 60 60" fill="none" xmlns="http://www.w3.org/2000/svg">
<circle cx="29.9262" cy="30.0737" r="27.4262" fill="#FAFBFB" stroke="#F55353" stroke-width="5"/>
<circle cx="30" cy="30" r="23" fill="#F55353"/>
<circle cx="30" cy="30" r="23" stroke="#F55353"/>
<path d="M26.4442 39.8771L25.6476 39.5823C25.0448 39.3593 24.3718 39.4361 23.8348 39.7894C23.0748 40.2894 22.0744 40.2202 21.3905 39.6203L20.8433 39.1402C19.9763 38.3797 19.7921 37.1012 20.4092 36.1269C20.8507 35.4298 20.8927 34.5517 20.5197 33.8156L20.4283 33.6351C20.1824 33.1499 19.7956 32.7503 19.3187 32.4888L18.117 31.83C17.3295 31.3982 16.84 30.5716 16.84 29.6734C16.84 28.6444 17.4807 27.7241 18.4458 27.3669L18.8757 27.2078C19.4079 27.0109 19.8649 26.6521 20.1826 26.1819L20.2453 26.0891C20.7821 25.2944 20.824 24.2647 20.3536 23.4291L20.3321 23.3909C19.7534 22.3629 19.9793 21.0696 20.8721 20.2986C21.6636 19.6151 22.7989 19.5019 23.7098 20.0156L23.7881 20.0597C24.3667 20.386 25.048 20.4791 25.6928 20.32L26.0208 20.239C26.9503 20.0097 27.6643 19.2652 27.8544 18.3269C28.0884 17.1726 29.1209 16.3428 30.2987 16.3428C31.4071 16.3428 32.4013 17.0676 32.7237 18.1281L32.7867 18.3353C33.0748 19.2829 33.8404 20.0089 34.802 20.2461L35.0583 20.3093C35.7234 20.4734 36.427 20.341 36.9869 19.9463C37.9222 19.287 39.1954 19.3921 40.0099 20.1959L40.0942 20.2791C40.8987 21.073 41.0722 22.3072 40.5177 23.2922L40.2983 23.6819C39.9077 24.3759 39.8912 25.2229 40.2511 25.9333C40.5626 26.5481 41.1282 26.9999 41.7974 27.165C42.8546 27.4258 43.5975 28.3743 43.5975 29.4633V30.0326C43.5975 31.0906 42.8758 32.0121 41.8486 32.2655C41.1521 32.4373 40.5757 32.9243 40.29 33.5823L40.1998 33.7898C39.8704 34.5484 39.9381 35.421 40.3806 36.1198C41.0089 37.1118 40.8609 38.4075 40.0251 39.2322L39.9073 39.3485C39.1197 40.1257 37.9377 40.3441 36.9244 39.8997L36.5771 39.7474C35.8257 39.4178 34.9671 39.4372 34.2312 39.8002C33.6014 40.111 33.1126 40.6487 32.8631 41.3052L32.836 41.3767C32.4417 42.4143 31.4471 43.1003 30.337 43.1003H29.9905C28.9707 43.1003 28.0811 42.408 27.8307 41.4195C27.6506 40.7085 27.1321 40.1317 26.4442 39.8771Z" fill="#FAFBFB"/>
<circle cx="30.2188" cy="29.7215" r="4.92903" fill="#F55353"/>
</svg>
