<svg width="85" height="85" viewBox="0 0 85 85" fill="none" xmlns="http://www.w3.org/2000/svg">
<circle cx="42.5" cy="42.5" r="38.5" fill="#FAFBFB" stroke="#F55353" stroke-width="8"/>
<circle cx="42.5845" cy="42.5" r="30.5" fill="#F55353"/>
<circle cx="42.5845" cy="42.5" r="30.5" stroke="#F55353"/>
<path d="M39.1073 44.92L39.1553 44.536C39.1553 43.16 39.5393 42.072 40.3073 41.272C41.1073 40.472 41.9713 39.944 42.8993 39.688C43.8273 39.432 44.6753 39 45.4433 38.392C46.2433 37.784 46.6433 36.968 46.6433 35.944C46.6433 34.888 46.3393 34.072 45.7313 33.496C45.1553 32.92 44.2753 32.632 43.0913 32.632C41.9073 32.632 41.0273 32.824 40.4513 33.208C39.9073 33.56 39.5713 33.928 39.4433 34.312L39.2993 34.888C39.0113 35.72 38.6753 36.36 38.2913 36.808C37.9073 37.224 37.4113 37.432 36.8033 37.432C36.1953 37.432 35.3953 37.24 34.4033 36.856C32.4833 36.12 31.5233 35.208 31.5233 34.12C31.5233 33.64 31.6193 33.16 31.8113 32.68C32.0033 32.168 32.1633 31.752 32.2913 31.432C32.4193 31.08 32.7553 30.488 33.2993 29.656C33.8753 28.824 34.5153 28.104 35.2193 27.496C35.9553 26.856 36.9793 26.28 38.2913 25.768C39.6033 25.224 41.0593 24.952 42.6593 24.952C46.0513 24.952 48.8193 26.04 50.9633 28.216C53.1073 30.392 54.1793 32.92 54.1793 35.8C54.1793 37.176 53.9233 38.456 53.4113 39.64C52.9313 40.792 52.3393 41.704 51.6353 42.376C50.2273 43.72 48.9153 44.616 47.6993 45.064L46.9313 45.304C46.9313 45.848 46.8993 46.264 46.8353 46.552C46.8033 46.84 46.6593 47.16 46.4033 47.512C46.1793 47.832 45.7793 48.072 45.2033 48.232C44.6593 48.36 43.9233 48.424 42.9953 48.424C42.0673 48.424 41.3153 48.344 40.7393 48.184C40.1953 48.024 39.8113 47.752 39.5873 47.368C39.3633 46.984 39.2193 46.648 39.1553 46.36C39.1233 46.04 39.1073 45.56 39.1073 44.92ZM38.9153 53.512C39.1713 53 39.6193 52.632 40.2593 52.408C40.9313 52.184 41.9713 52.072 43.3793 52.072C44.7873 52.072 45.7953 52.392 46.4033 53.032C47.0433 53.64 47.3633 54.84 47.3633 56.632C47.3633 57.912 47.2033 58.872 46.8833 59.512C46.5633 60.12 46.0673 60.536 45.3953 60.76C44.7553 60.952 43.7473 61.048 42.3713 61.048C40.9953 61.048 39.9393 60.712 39.2033 60.04C38.6593 59.496 38.3873 58.568 38.3873 57.256V56.488C38.3873 55.752 38.4033 55.192 38.4353 54.808C38.4993 54.424 38.6593 53.992 38.9153 53.512Z" fill="#FAFBFB"/>
</svg>
