<svg width="414" height="736" viewBox="0 0 414 736" fill="none" xmlns="http://www.w3.org/2000/svg">
<g clip-path="url(#clip0_5_3686)">
<rect width="414" height="736" fill="#FFC777"/>
<rect width="414" height="736" fill="#FFC777"/>
<rect width="414" height="80" fill="#E59F3C"/>
<path d="M371.584 649.041C357.391 649.564 353.125 679.81 356.883 696.75C357.811 700.935 364.193 703.258 370.893 699.412C376.477 696.207 387.005 648.473 371.584 649.041Z" fill="#E59F3C" fill-opacity="0.5"/>
<path d="M360.052 723.98C348.204 723.056 351.516 715.84 353.801 711.214C355.729 707.31 365.062 705.611 367.764 708.363C370.467 711.115 372.675 724.964 360.052 723.98Z" fill="#E59F3C" fill-opacity="0.5"/>
<path d="M407.796 527.769C393.604 528.292 389.337 558.539 393.095 575.478C394.024 579.663 400.405 581.987 407.106 578.141C412.689 574.936 423.217 527.201 407.796 527.769Z" fill="#E59F3C" fill-opacity="0.5"/>
<path d="M396.264 602.708C384.417 601.785 387.729 594.569 390.013 589.943C391.942 586.039 401.274 584.339 403.977 587.091C406.679 589.844 408.888 603.693 396.264 602.708Z" fill="#E59F3C" fill-opacity="0.5"/>
<path d="M400.608 743.663C412.887 753.325 400.196 780.041 387.645 790.997C384.545 793.704 377.63 791.384 373.793 783.975C370.595 777.8 387.266 733.164 400.608 743.663Z" fill="#E59F3C" fill-opacity="0.5"/>
<path d="M370.014 810.481C381.005 817.47 382.002 809.601 382.498 804.452C382.917 800.106 375.58 792.68 371.689 793.096C367.799 793.513 358.303 803.034 370.014 810.481Z" fill="#E59F3C" fill-opacity="0.5"/>
<path d="M440.619 613.918C452.899 623.58 440.207 650.296 427.657 661.252C424.556 663.959 417.642 661.639 413.805 654.23C410.607 648.055 427.277 603.419 440.619 613.918Z" fill="#E59F3C" fill-opacity="0.5"/>
<path d="M410.026 680.736C421.017 687.725 422.013 679.856 422.51 674.707C422.928 670.361 415.592 662.935 411.701 663.351C407.81 663.768 398.315 673.289 410.026 680.736Z" fill="#E59F3C" fill-opacity="0.5"/>
<path d="M266.835 616.738C252.643 617.261 248.377 647.507 252.135 664.447C253.063 668.632 259.445 670.956 266.145 667.11C271.729 663.905 282.257 616.17 266.835 616.738Z" fill="#E59F3C" fill-opacity="0.5"/>
<path d="M255.304 691.677C243.456 690.753 246.768 683.537 249.053 678.912C250.981 675.007 260.314 673.308 263.016 676.06C265.719 678.812 267.927 692.661 255.304 691.677Z" fill="#E59F3C" fill-opacity="0.5"/>
<path d="M303.048 495.467C288.856 495.99 284.589 526.236 288.347 543.176C289.276 547.361 295.657 549.684 302.358 545.838C307.941 542.633 318.469 494.899 303.048 495.467Z" fill="#E59F3C" fill-opacity="0.5"/>
<path d="M291.516 570.406C279.669 569.482 282.981 562.266 285.265 557.64C287.194 553.736 296.526 552.037 299.229 554.789C301.931 557.541 304.14 571.39 291.516 570.406Z" fill="#E59F3C" fill-opacity="0.5"/>
<path d="M295.86 711.36C308.139 721.022 295.448 747.738 282.897 758.694C279.797 761.401 272.882 759.082 269.045 751.672C265.847 745.497 282.518 700.861 295.86 711.36Z" fill="#E59F3C" fill-opacity="0.5"/>
<path d="M265.266 778.178C276.257 785.168 277.254 777.299 277.75 772.15C278.169 767.803 270.832 760.377 266.941 760.794C263.051 761.21 253.555 770.731 265.266 778.178Z" fill="#E59F3C" fill-opacity="0.5"/>
<path d="M335.871 581.615C348.151 591.277 335.459 617.993 322.909 628.949C319.808 631.656 312.894 629.337 309.057 621.927C305.859 615.752 322.529 571.116 335.871 581.615Z" fill="#E59F3C" fill-opacity="0.5"/>
<path d="M305.278 648.433C316.269 655.423 317.265 647.554 317.762 642.405C318.18 638.058 310.844 630.632 306.953 631.049C303.062 631.466 293.567 640.986 305.278 648.433Z" fill="#E59F3C" fill-opacity="0.5"/>
<path d="M375.883 451.87C388.162 461.532 375.47 488.248 362.92 499.204C359.82 501.911 352.905 499.592 349.068 492.182C345.87 486.007 362.541 441.371 375.883 451.87Z" fill="#E59F3C" fill-opacity="0.5"/>
<path d="M345.289 518.688C356.28 525.678 357.277 517.809 357.773 512.66C358.192 508.313 350.855 500.887 346.964 501.304C343.073 501.721 333.578 511.241 345.289 518.688Z" fill="#E59F3C" fill-opacity="0.5"/>
<path d="M346.712 357.723C332.519 358.246 328.253 388.493 332.011 405.432C332.94 409.617 339.321 411.941 346.021 408.095C351.605 404.89 362.133 357.155 346.712 357.723Z" fill="#E59F3C" fill-opacity="0.5"/>
<path d="M335.18 432.662C323.332 431.738 326.645 424.523 328.929 419.897C330.857 415.993 340.19 414.293 342.893 417.045C345.595 419.798 347.803 433.647 335.18 432.662Z" fill="#E59F3C" fill-opacity="0.5"/>
<path d="M386.136 229.884C371.943 230.407 367.677 260.653 371.435 277.593C372.364 281.778 378.745 284.101 385.445 280.255C391.029 277.05 401.557 229.316 386.136 229.884Z" fill="#E59F3C" fill-opacity="0.5"/>
<path d="M374.604 304.823C362.756 303.899 366.068 296.683 368.353 292.057C370.281 288.153 379.614 286.454 382.316 289.206C385.019 291.958 387.227 305.807 374.604 304.823Z" fill="#E59F3C" fill-opacity="0.5"/>
<path d="M422.348 108.612C408.156 109.135 403.889 139.382 407.648 156.321C408.576 160.506 414.957 162.83 421.658 158.984C427.241 155.779 437.769 108.044 422.348 108.612Z" fill="#E59F3C" fill-opacity="0.5"/>
<path d="M410.816 183.551C398.969 182.628 402.281 175.412 404.566 170.786C406.494 166.882 415.826 165.182 418.529 167.934C421.232 170.687 423.44 184.536 410.816 183.551Z" fill="#E59F3C" fill-opacity="0.5"/>
<path d="M415.16 324.506C427.439 334.168 414.748 360.884 402.197 371.84C399.097 374.547 392.183 372.227 388.345 364.818C385.147 358.643 401.818 314.007 415.16 324.506Z" fill="#E59F3C" fill-opacity="0.5"/>
<path d="M384.566 391.324C395.557 398.313 396.554 390.444 397.05 385.295C397.469 380.949 390.132 373.523 386.242 373.939C382.351 374.356 372.855 383.877 384.566 391.324Z" fill="#E59F3C" fill-opacity="0.5"/>
<path d="M455.171 194.761C467.451 204.423 454.759 231.139 442.209 242.095C439.108 244.802 432.194 242.482 428.357 235.073C425.159 228.898 441.829 184.262 455.171 194.761Z" fill="#E59F3C" fill-opacity="0.5"/>
<path d="M424.578 261.579C435.569 268.568 436.566 260.699 437.062 255.55C437.48 251.204 430.144 243.778 426.253 244.194C422.362 244.611 412.867 254.132 424.578 261.579Z" fill="#E59F3C" fill-opacity="0.5"/>
<path d="M123.853 712.642C109.661 713.165 105.395 743.411 109.153 760.351C110.081 764.536 116.463 766.86 123.163 763.014C128.747 759.808 139.275 712.074 123.853 712.642Z" fill="#E59F3C" fill-opacity="0.5"/>
<path d="M112.322 787.581C100.474 786.657 103.786 779.441 106.071 774.815C107.999 770.911 117.332 769.212 120.034 771.964C122.737 774.716 124.945 788.565 112.322 787.581Z" fill="#E59F3C" fill-opacity="0.5"/>
<path d="M163.277 584.802C149.085 585.325 144.819 615.571 148.577 632.511C149.505 636.696 155.887 639.02 162.587 635.174C168.17 631.969 178.698 584.234 163.277 584.802Z" fill="#E59F3C" fill-opacity="0.5"/>
<path d="M151.745 659.741C139.898 658.817 143.21 651.601 145.495 646.976C147.423 643.072 156.756 641.372 159.458 644.124C162.161 646.876 164.369 660.725 151.745 659.741Z" fill="#E59F3C" fill-opacity="0.5"/>
<path d="M199.49 463.531C185.297 464.054 181.031 494.3 184.789 511.24C185.718 515.425 192.099 517.749 198.799 513.903C204.383 510.698 214.911 462.963 199.49 463.531Z" fill="#E59F3C" fill-opacity="0.5"/>
<path d="M187.958 538.47C176.111 537.546 179.423 530.33 181.707 525.704C183.636 521.8 192.968 520.101 195.671 522.853C198.373 525.605 200.581 539.454 187.958 538.47Z" fill="#E59F3C" fill-opacity="0.5"/>
<path d="M192.302 679.424C204.581 689.086 191.889 715.802 179.339 726.758C176.239 729.465 169.324 727.146 165.487 719.736C162.289 713.561 178.959 668.925 192.302 679.424Z" fill="#E59F3C" fill-opacity="0.5"/>
<path d="M161.708 746.242C172.699 753.232 173.696 745.363 174.192 740.214C174.611 735.867 167.274 728.441 163.383 728.858C159.492 729.275 149.997 738.795 161.708 746.242Z" fill="#E59F3C" fill-opacity="0.5"/>
<path d="M232.313 549.679C244.592 559.341 231.901 586.057 219.351 597.013C216.25 599.72 209.336 597.401 205.498 589.991C202.301 583.816 218.971 539.18 232.313 549.679Z" fill="#E59F3C" fill-opacity="0.5"/>
<path d="M201.719 616.497C212.71 623.487 213.707 615.618 214.203 610.468C214.622 606.122 207.286 598.696 203.395 599.113C199.504 599.529 190.009 609.05 201.719 616.497Z" fill="#E59F3C" fill-opacity="0.5"/>
<path d="M272.325 419.934C284.604 429.596 271.912 456.312 259.362 467.268C256.261 469.975 249.347 467.656 245.51 460.246C242.312 454.071 258.982 409.435 272.325 419.934Z" fill="#E59F3C" fill-opacity="0.5"/>
<path d="M241.731 486.752C252.722 493.742 253.719 485.873 254.215 480.724C254.634 476.377 247.297 468.951 243.406 469.368C239.515 469.785 230.02 479.305 241.731 486.752Z" fill="#E59F3C" fill-opacity="0.5"/>
<path d="M243.154 325.788C228.961 326.31 224.695 356.557 228.453 373.496C229.382 377.681 235.763 380.005 242.463 376.159C248.047 372.954 258.575 325.22 243.154 325.788Z" fill="#E59F3C" fill-opacity="0.5"/>
<path d="M231.622 400.726C219.774 399.803 223.086 392.587 225.371 387.961C227.299 384.057 236.632 382.357 239.335 385.11C242.037 387.862 244.245 401.711 231.622 400.726Z" fill="#E59F3C" fill-opacity="0.5"/>
<path d="M282.578 197.948C268.385 198.471 264.119 228.717 267.877 245.657C268.805 249.842 275.187 252.166 281.887 248.32C287.471 245.115 297.999 197.38 282.578 197.948Z" fill="#E59F3C" fill-opacity="0.5"/>
<path d="M271.046 272.887C259.198 271.963 262.51 264.747 264.795 260.121C266.723 256.217 276.056 254.518 278.758 257.27C281.461 260.022 283.669 273.871 271.046 272.887Z" fill="#E59F3C" fill-opacity="0.5"/>
<path d="M318.79 76.6764C304.598 77.1992 300.331 107.446 304.09 124.385C305.018 128.57 311.399 130.894 318.1 127.048C323.683 123.843 334.211 76.1085 318.79 76.6764Z" fill="#E59F3C" fill-opacity="0.5"/>
<path d="M307.258 151.615C295.411 150.691 298.723 143.476 301.008 138.85C302.936 134.946 312.268 133.246 314.971 135.998C317.674 138.751 319.882 152.6 307.258 151.615Z" fill="#E59F3C" fill-opacity="0.5"/>
<path d="M311.602 292.569C323.881 302.232 311.19 328.948 298.639 339.904C295.539 342.611 288.624 340.291 284.787 332.882C281.589 326.707 298.26 282.071 311.602 292.569Z" fill="#E59F3C" fill-opacity="0.5"/>
<path d="M281.008 359.388C291.999 366.377 292.996 358.508 293.492 353.359C293.911 349.013 286.574 341.586 282.683 342.003C278.793 342.42 269.297 351.941 281.008 359.388Z" fill="#E59F3C" fill-opacity="0.5"/>
<path d="M351.613 162.824C363.893 172.487 351.201 199.203 338.651 210.159C335.55 212.866 328.636 210.546 324.799 203.137C321.601 196.962 338.271 152.326 351.613 162.824Z" fill="#E59F3C" fill-opacity="0.5"/>
<path d="M321.02 229.643C332.011 236.632 333.007 228.763 333.504 223.614C333.922 219.268 326.586 211.841 322.695 212.258C318.804 212.675 309.309 222.196 321.02 229.643Z" fill="#E59F3C" fill-opacity="0.5"/>
<path d="M391.625 33.0795C403.904 42.7416 391.212 69.4576 378.662 80.414C375.562 83.1208 368.647 80.8014 364.81 73.3916C361.612 67.2168 378.283 22.5809 391.625 33.0795Z" fill="#E59F3C" fill-opacity="0.5"/>
<path d="M361.031 99.8978C372.022 106.887 373.019 99.0185 373.515 93.8691C373.934 89.5229 366.597 82.0965 362.706 82.5133C358.815 82.9301 349.32 92.4507 361.031 99.8978Z" fill="#E59F3C" fill-opacity="0.5"/>
<path d="M19.1053 680.339C4.91283 680.862 0.646512 711.108 4.4047 728.048C5.33319 732.233 11.7145 734.557 18.4148 730.711C23.9983 727.506 34.5263 679.771 19.1053 680.339Z" fill="#E59F3C" fill-opacity="0.5"/>
<path d="M7.57341 755.278C-4.27408 754.354 -0.961942 747.138 1.32269 742.512C3.25099 738.608 12.5836 736.909 15.2862 739.661C17.9887 742.413 20.1969 756.262 7.57341 755.278Z" fill="#E59F3C" fill-opacity="0.5"/>
<path d="M58.529 552.499C44.3366 553.022 40.0702 583.268 43.8284 600.208C44.7569 604.393 51.1382 606.717 57.8385 602.871C63.422 599.666 73.95 551.931 58.529 552.499Z" fill="#E59F3C" fill-opacity="0.5"/>
<path d="M46.9971 627.438C35.1497 626.514 38.4618 619.298 40.7464 614.673C42.6747 610.769 52.0074 609.069 54.7099 611.821C57.4124 614.573 59.6206 628.422 46.9971 627.438Z" fill="#E59F3C" fill-opacity="0.5"/>
<path d="M94.7417 431.228C80.5492 431.751 76.2829 461.997 80.0411 478.937C80.9696 483.122 87.3509 485.446 94.0512 481.6C99.6347 478.395 110.163 430.66 94.7417 431.228Z" fill="#E59F3C" fill-opacity="0.5"/>
<path d="M83.2098 506.167C71.3623 505.243 74.6745 498.027 76.9591 493.401C78.8874 489.497 88.22 487.798 90.9226 490.55C93.6251 493.302 95.8333 507.151 83.2098 506.167Z" fill="#E59F3C" fill-opacity="0.5"/>
<path d="M87.5535 647.121C99.8327 656.783 87.1411 683.499 74.5909 694.455C71.4903 697.162 64.576 694.843 60.7387 687.433C57.5409 681.258 74.2112 636.622 87.5535 647.121Z" fill="#E59F3C" fill-opacity="0.5"/>
<path d="M56.9598 713.939C67.9507 720.929 68.9476 713.06 69.4437 707.911C69.8624 703.564 62.5259 696.138 58.635 696.555C54.7441 696.972 45.2489 706.492 56.9598 713.939Z" fill="#E59F3C" fill-opacity="0.5"/>
<path d="M127.565 517.376C139.844 527.038 127.152 553.754 114.602 564.71C111.502 567.417 104.587 565.098 100.75 557.688C97.5522 551.513 114.223 506.877 127.565 517.376Z" fill="#E59F3C" fill-opacity="0.5"/>
<path d="M96.9711 584.194C107.962 591.184 108.959 583.315 109.455 578.166C109.874 573.819 102.537 566.393 98.6464 566.81C94.7555 567.227 85.2603 576.747 96.9711 584.194Z" fill="#E59F3C" fill-opacity="0.5"/>
<path d="M167.576 387.631C179.856 397.293 167.164 424.009 154.614 434.965C151.513 437.672 144.599 435.353 140.761 427.943C137.564 421.768 154.234 377.132 167.576 387.631Z" fill="#E59F3C" fill-opacity="0.5"/>
<path d="M136.983 454.449C147.974 461.439 148.97 453.57 149.466 448.421C149.885 444.074 142.549 436.648 138.658 437.065C134.767 437.482 125.272 447.002 136.983 454.449Z" fill="#E59F3C" fill-opacity="0.5"/>
<path d="M138.405 293.485C124.213 294.008 119.947 324.254 123.705 341.194C124.633 345.379 131.015 347.702 137.715 343.856C143.299 340.651 153.827 292.917 138.405 293.485Z" fill="#E59F3C" fill-opacity="0.5"/>
<path d="M126.874 368.424C115.026 367.5 118.338 360.284 120.623 355.658C122.551 351.754 131.884 350.055 134.586 352.807C137.289 355.559 139.497 369.408 126.874 368.424Z" fill="#E59F3C" fill-opacity="0.5"/>
<path d="M177.829 165.645C163.637 166.168 159.37 196.414 163.129 213.354C164.057 217.539 170.438 219.863 177.139 216.017C182.722 212.812 193.25 165.077 177.829 165.645Z" fill="#E59F3C" fill-opacity="0.5"/>
<path d="M166.297 240.584C154.45 239.66 157.762 232.444 160.047 227.819C161.975 223.914 171.308 222.215 174.01 224.967C176.713 227.719 178.921 241.568 166.297 240.584Z" fill="#E59F3C" fill-opacity="0.5"/>
<path d="M214.042 44.3737C199.849 44.8964 195.583 75.1428 199.341 92.0825C200.27 96.2676 206.651 98.5913 213.351 94.7453C218.935 91.5403 229.463 43.8057 214.042 44.3737Z" fill="#E59F3C" fill-opacity="0.5"/>
<path d="M202.51 119.313C190.663 118.389 193.975 111.173 196.259 106.547C198.188 102.643 207.52 100.944 210.223 103.696C212.925 106.448 215.134 120.297 202.51 119.313Z" fill="#E59F3C" fill-opacity="0.5"/>
<path d="M206.854 260.267C219.133 269.929 206.441 296.645 193.891 307.601C190.791 310.308 183.876 307.989 180.039 300.579C176.841 294.404 193.511 249.768 206.854 260.267Z" fill="#E59F3C" fill-opacity="0.5"/>
<path d="M176.26 327.085C187.251 334.074 188.248 326.206 188.744 321.056C189.163 316.71 181.826 309.284 177.935 309.701C174.044 310.117 164.549 319.638 176.26 327.085Z" fill="#E59F3C" fill-opacity="0.5"/>
<path d="M246.865 130.522C259.144 140.184 246.453 166.9 233.902 177.856C230.802 180.563 223.888 178.244 220.05 170.834C216.852 164.659 233.523 120.023 246.865 130.522Z" fill="#E59F3C" fill-opacity="0.5"/>
<path d="M216.271 197.34C227.262 204.329 228.259 196.461 228.755 191.311C229.174 186.965 221.837 179.539 217.947 179.956C214.056 180.372 204.56 189.893 216.271 197.34Z" fill="#E59F3C" fill-opacity="0.5"/>
<path d="M286.876 0.776769C299.156 10.4389 286.464 37.1548 273.914 48.1112C270.813 50.8181 263.899 48.4987 260.062 41.0888C256.864 34.914 273.534 -9.72179 286.876 0.776769Z" fill="#E59F3C" fill-opacity="0.5"/>
<path d="M256.283 67.5951C267.274 74.5845 268.271 66.7157 268.767 61.5664C269.185 57.2201 261.849 49.7938 257.958 50.2106C254.067 50.6274 244.572 60.148 256.283 67.5951Z" fill="#E59F3C" fill-opacity="0.5"/>
<path d="M-10.0066 398.925C-24.199 399.448 -28.4653 429.694 -24.7071 446.634C-23.7786 450.819 -17.3973 453.143 -10.6971 449.297C-5.11352 446.092 5.41447 398.357 -10.0066 398.925Z" fill="#E59F3C" fill-opacity="0.5"/>
<path d="M-21.5384 473.864C-33.3859 472.94 -30.0738 465.724 -27.7891 461.099C-25.8608 457.195 -16.5282 455.495 -13.8257 458.247C-11.1231 460.999 -8.91495 474.848 -21.5384 473.864Z" fill="#E59F3C" fill-opacity="0.5"/>
<path d="M-17.1947 614.818C-4.91549 624.481 -17.6071 651.196 -30.1573 662.153C-33.2579 664.86 -40.1722 662.54 -44.0095 655.13C-47.2073 648.956 -30.537 604.32 -17.1947 614.818Z" fill="#E59F3C" fill-opacity="0.5"/>
<path d="M-47.7884 681.637C-36.7975 688.626 -35.8006 680.757 -35.3045 675.608C-34.8858 671.262 -42.2223 663.835 -46.1132 664.252C-50.0041 664.669 -59.4993 674.19 -47.7884 681.637Z" fill="#E59F3C" fill-opacity="0.5"/>
<path d="M22.8167 485.073C35.096 494.736 22.4044 521.451 9.85421 532.408C6.75358 535.115 -0.160694 532.795 -3.99805 525.385C-7.19583 519.211 9.4745 474.575 22.8167 485.073Z" fill="#E59F3C" fill-opacity="0.5"/>
<path d="M-7.77695 551.892C3.21401 558.881 4.21083 551.012 4.70693 545.863C5.12565 541.517 -2.21084 534.09 -6.10171 534.507C-9.99258 534.924 -19.4878 544.445 -7.77695 551.892Z" fill="#E59F3C" fill-opacity="0.5"/>
<path d="M62.8282 355.328C75.1074 364.991 62.4158 391.706 49.8657 402.663C46.765 405.37 39.8507 403.05 36.0134 395.64C32.8156 389.466 49.4859 344.83 62.8282 355.328Z" fill="#E59F3C" fill-opacity="0.5"/>
<path d="M32.2345 422.147C43.2255 429.136 44.2223 421.267 44.7184 416.118C45.1371 411.772 37.8006 404.345 33.9097 404.762C30.0189 405.179 20.5237 414.7 32.2345 422.147Z" fill="#E59F3C" fill-opacity="0.5"/>
<path d="M33.6572 261.182C19.4648 261.705 15.1985 291.951 18.9566 308.891C19.8851 313.076 26.2664 315.4 32.9667 311.554C38.5502 308.349 49.0782 260.614 33.6572 261.182Z" fill="#E59F3C" fill-opacity="0.5"/>
<path d="M22.1253 336.121C10.2779 335.197 13.59 327.981 15.8746 323.356C17.8029 319.451 27.1356 317.752 29.8381 320.504C32.5406 323.256 34.7488 337.105 22.1253 336.121Z" fill="#E59F3C" fill-opacity="0.5"/>
<path d="M73.0811 133.342C58.8887 133.865 54.6223 164.112 58.3805 181.051C59.309 185.236 65.6903 187.56 72.3906 183.714C77.9741 180.509 88.5021 132.774 73.0811 133.342Z" fill="#E59F3C" fill-opacity="0.5"/>
<path d="M61.5492 208.281C49.7018 207.358 53.0139 200.142 55.2985 195.516C57.2268 191.612 66.5595 189.912 69.262 192.664C71.9645 195.417 74.1727 209.266 61.5492 208.281Z" fill="#E59F3C" fill-opacity="0.5"/>
<path d="M109.294 12.0711C95.1012 12.5938 90.8349 42.8402 94.5931 59.7799C95.5215 63.965 101.903 66.2887 108.603 62.4427C114.187 59.2377 124.715 11.5031 109.294 12.0711Z" fill="#E59F3C" fill-opacity="0.5"/>
<path d="M97.7618 87.0099C85.9143 86.0862 89.2264 78.8702 91.511 74.2445C93.4393 70.3403 102.772 68.641 105.475 71.3931C108.177 74.1452 110.385 87.9942 97.7618 87.0099Z" fill="#E59F3C" fill-opacity="0.5"/>
<path d="M102.105 227.964C114.385 237.626 101.693 264.342 89.1429 275.299C86.0423 278.005 79.128 275.686 75.2907 268.276C72.0929 262.101 88.7632 217.466 102.105 227.964Z" fill="#E59F3C" fill-opacity="0.5"/>
<path d="M71.5118 294.782C82.5027 301.772 83.4996 293.903 83.9957 288.754C84.4144 284.408 77.0779 276.981 73.187 277.398C69.2962 277.815 59.8009 287.335 71.5118 294.782Z" fill="#E59F3C" fill-opacity="0.5"/>
<path d="M142.117 98.2192C154.396 107.881 141.705 134.597 129.154 145.554C126.054 148.26 119.139 145.941 115.302 138.531C112.104 132.356 128.775 87.7206 142.117 98.2192Z" fill="#E59F3C" fill-opacity="0.5"/>
<path d="M111.523 165.037C122.514 172.027 123.511 164.158 124.007 159.009C124.426 154.663 117.089 147.236 113.198 147.653C109.308 148.07 99.8124 157.59 111.523 165.037Z" fill="#E59F3C" fill-opacity="0.5"/>
<path d="M182.128 -31.5258C194.408 -21.8637 181.716 4.85221 169.166 15.8086C166.065 18.5155 159.151 16.1961 155.314 8.78623C152.116 2.61141 168.786 -42.0244 182.128 -31.5258Z" fill="#E59F3C" fill-opacity="0.5"/>
<path d="M151.535 35.2925C162.526 42.2819 163.522 34.4131 164.019 29.2638C164.437 24.9175 157.101 17.4912 153.21 17.908C149.319 18.3248 139.824 27.8453 151.535 35.2925Z" fill="#E59F3C" fill-opacity="0.5"/>
<path d="M4.54536 -20.2318C-9.64707 -19.7091 -13.9134 10.5373 -10.1552 27.477C-9.22671 31.6621 -2.84542 33.9859 3.85486 30.1398C9.43839 26.9348 19.9664 -20.7998 4.54536 -20.2318Z" fill="#E59F3C" fill-opacity="0.5"/>
<path d="M-6.9865 54.7071C-18.834 53.7833 -15.5218 46.5674 -13.2372 41.9417C-11.3089 38.0375 -1.97628 36.3381 0.726255 39.0902C3.42879 41.8423 5.63696 55.6913 -6.9865 54.7071Z" fill="#E59F3C" fill-opacity="0.5"/>
<path d="M-2.64283 195.661C9.63642 205.323 -3.05518 232.039 -15.6054 242.996C-18.706 245.703 -25.6203 243.383 -29.4576 235.973C-32.6554 229.799 -15.9851 185.163 -2.64283 195.661Z" fill="#E59F3C" fill-opacity="0.5"/>
<path d="M-33.2365 262.48C-22.2456 269.469 -21.2487 261.6 -20.7526 256.451C-20.3339 252.105 -27.6704 244.678 -31.5613 245.095C-35.4521 245.512 -44.9473 255.032 -33.2365 262.48Z" fill="#E59F3C" fill-opacity="0.5"/>
<path d="M37.3686 65.9162C49.6479 75.5783 36.9563 102.294 24.4061 113.251C21.3055 115.957 14.3912 113.638 10.5539 106.228C7.35608 100.053 24.0264 55.4176 37.3686 65.9162Z" fill="#E59F3C" fill-opacity="0.5"/>
<path d="M6.77496 132.735C17.7659 139.724 18.7627 131.855 19.2588 126.706C19.6776 122.36 12.3411 114.933 8.4502 115.35C4.55933 115.767 -4.93587 125.287 6.77496 132.735Z" fill="#E59F3C" fill-opacity="0.5"/>
<path d="M77.3801 -63.8287C89.6594 -54.1666 76.9678 -27.4506 64.4176 -16.4943C61.317 -13.7874 54.4027 -16.1068 50.5653 -23.5166C47.3676 -29.6914 64.0379 -74.3273 77.3801 -63.8287Z" fill="#E59F3C" fill-opacity="0.5"/>
<path d="M46.7864 2.98965C57.7774 9.97901 58.7742 2.11026 59.2703 -3.0391C59.689 -7.38533 52.3525 -14.8117 48.4617 -14.3949C44.5708 -13.9781 35.0756 -4.45751 46.7864 2.98965Z" fill="#E59F3C" fill-opacity="0.5"/>
</g>
<defs>
<clipPath id="clip0_5_3686">
<rect width="414" height="736" fill="white"/>
</clipPath>
</defs>
</svg>
